Coordinates
version=1
nRows=4
nColumns=63
inDegrees=yes

Units are S.I. units (second, meters, Newtons, ...)
If the header above contains a line with 'inDegrees', this indicates whether rotational values are in degrees (yes) or radians (no).

endheader
time	pelvis_tilt	pelvis_list	pelvis_rotation	pelvis_tx	pelvis_ty	pelvis_tz	hip_flexion_r	hip_adduction_r	hip_rotation_r	knee_angle_r	knee_angle_r_beta	ankle_angle_r	subtalar_angle_r	mtp_angle_r	hip_flexion_l	hip_adduction_l	hip_rotation_l	knee_angle_l	knee_angle_l_beta	ankle_angle_l	subtalar_angle_l	mtp_angle_l	L5_S1_Flex_Ext	L5_S1_Lat_Bending	L5_S1_axial_rotation	L4_L5_Flex_Ext	L4_L5_Lat_Bending	L4_L5_axial_rotation	L3_L4_Flex_Ext	L3_L4_Lat_Bending	L3_L4_axial_rotation	L2_L3_Flex_Ext	L2_L3_Lat_Bending	L2_L3_axial_rotation	L1_L2_Flex_Ext	L1_L2_Lat_Bending	L1_L2_axial_rotation	L1_T12_Flex_Ext	L1_T12_Lat_Bending	L1_T12_axial_rotation	Abs_r3	Abs_r2	Abs_r1	Abs_t1	Abs_t2	neck_flexion	neck_bending	neck_rotation	arm_flex_r	arm_add_r	arm_rot_r	elbow_flex_r	pro_sup_r	wrist_flex_r	wrist_dev_r	arm_flex_l	arm_add_l	arm_rot_l	elbow_flex_l	pro_sup_l	wrist_flex_l	wrist_dev_l
      1.35593220	     -7.36589008	     -3.95450606	     88.08733261	      0.26580700	      0.98890770	      0.26322726	      2.75313682	     -7.45964383	    -11.84321441	      7.42449283	      0.12958185	     24.43446400	     14.13769106	      0.00000000	      4.87821250	      8.72255735	     -3.47968876	      9.10542560	      0.15891966	     19.41868124	     -8.76307150	      0.00000000	     -0.32976703	     -1.17554715	      1.43633141	     -0.61241035	     -1.56347771	      1.52610213	     -0.54177426	     -2.85822535	      1.52610213	     -0.37689074	     -2.85822535	      1.25678999	     -0.30622167	     -2.39717576	      1.16701927	     -0.18842888	     -1.82092254	      1.07724856	     -2.35549293	    -13.29802451	      7.98844442	      0.00000000	      0.00000000	     -7.97028754	      3.35200886	      0.51336370	    -29.96761428	    -47.23285480	    -69.51769017	     78.16725629	     89.40388374	    -20.83704348	     16.53506325	    -34.65306277	    -50.71839185	    -85.16382343	     79.35634382	     89.26311330	    -28.77954371	     -4.35596067
      1.37288136	     -7.33588094	     -4.12425809	     88.26459116	      0.26461961	      0.98823015	      0.26398295	      3.43540141	     -7.59121184	    -11.76317828	      8.38943261	      0.14642322	     24.85733997	     13.64589467	      0.00000000	      5.45436615	      8.64217308	     -4.23198599	      9.81909437	      0.17137553	     20.01787561	     -7.68031580	      0.00000000	     -0.32339926	     -1.14704003	      1.43409217	     -0.60058476	     -1.52556324	      1.52372293	     -0.53131264	     -2.78891313	      1.52372293	     -0.36961301	     -2.78891313	      1.25483065	     -0.30030855	     -2.33904403	      1.16519989	     -0.18479034	     -1.77676500	      1.07556913	     -2.31000856	    -12.97554621	      7.97599041	      0.00000000	      0.00000000	     -7.87578646	      2.91589336	      0.71544260	    -30.44044404	    -47.91683864	    -72.33680300	     78.11964126	     89.47346042	    -24.02103139	     14.28476246	    -33.26932549	    -51.49316691	    -85.88363792	     77.89892180	     89.24612398	    -31.88696842	     -8.14936764
      1.38983051	     -7.25777002	     -4.30638344	     88.49756384	      0.26326195	      0.98737319	      0.26477645	      4.16070638	     -7.68489157	    -11.75756446	      9.42032840	      0.16441575	     25.34023680	     13.15177778	      0.00000000	      6.11512641	      8.53736044	     -4.60815072	     10.67284618	      0.18627631	     20.52939666	     -7.15024072	      0.00000000	     -0.30856765	     -1.11223026	      1.39472771	     -0.57304099	     -1.47926625	      1.48189819	     -0.50694580	     -2.70427666	      1.48189819	     -0.35266197	     -2.70427666	      1.22038675	     -0.28653592	     -2.26805995	      1.13321626	     -0.17631556	     -1.72284468	      1.04604578	     -2.20406790	    -12.58177119	      7.75705710	      0.00000000	      0.00000000	     -7.91743958	      2.62886163	      1.20137524	    -30.65822806	    -48.64053728	    -74.65559887	     77.89341398	     89.50822568	    -25.99015261	     12.28795364	    -31.79069237	    -51.74975569	    -86.89640312	     76.54323636	     89.18656215	    -32.74154189	    -11.05131457
      1.40677966	     -7.15992536	     -4.28398819	     88.70830571	      0.26205375	      0.98674262	      0.26537517	      4.64514155	     -7.72627294	    -11.46738020	     10.39590442	      0.18144276	     25.76850088	     12.35325048	      0.00000000	      6.41177629	      8.38533949	     -5.36327892	     11.25906946	      0.19650783	     21.05363719	     -6.02670486	      0.00000000	     -0.32414043	     -1.07755479	      1.40689572	     -0.60196118	     -1.43314787	      1.49482670	     -0.53253031	     -2.61996671	      1.49482670	     -0.37046009	     -2.61996671	      1.23103376	     -0.30099680	     -2.19734972	      1.14310277	     -0.18521384	     -1.66913236	      1.05517179	     -2.31530265	    -12.18951526	      7.82473194	      0.00000000	      0.00000000	     -8.08800488	      2.43468288	      1.43434003	    -31.37189148	    -49.26888353	    -76.55161972	     77.14104111	     89.50697873	    -28.75453207	      9.34181032	    -29.86515099	    -52.02353613	    -86.86591809	     75.19693442	     89.02902123	    -33.38344318	    -13.72681813
